<?xml version="1.0" encoding="UTF-8"?><svg id="Calque_1" xmlns="http://www.w3.org/2000/svg" viewBox="0 0 258.63 107.32"><defs><style>.cls-1{fill:#00a79d;}.cls-1,.cls-2{stroke-width:0px;}.cls-2{fill:#231f20;}</style></defs><path class="cls-2" d="M27.02,73.38c-.79.73-1.97,1.38-3.55,1.94-.84.34-2.2.76-4.05,1.27-1.86.45-2.98.7-3.38.76-1.86.34-3.38.51-4.56.51-1.63,0-3.04-.21-4.22-.63-1.18-.42-2.08-.94-2.7-1.56-.56-.62-1-1.66-1.31-3.12-.31-1.46-.41-2.87-.3-4.22l2.79-32.08c.11-1.35.42-2.76.93-4.22.51-1.46,1.15-2.53,1.94-3.21.39-.34.87-.68,1.44-1.01.56-.34,1.27-.65,2.11-.93.39-.17.93-.35,1.6-.55.68-.2,1.46-.44,2.36-.72.96-.22,1.7-.39,2.24-.51.53-.11.94-.2,1.22-.25,1.74-.34,3.24-.51,4.47-.51,1.63,0,3.05.21,4.26.63,1.21.42,2.1.97,2.66,1.65.62.62,1.08,1.62,1.39,3,.31,1.38.41,2.8.3,4.26l-2.87,32.08c-.11,1.52-.41,2.96-.89,4.31-.48,1.35-1.11,2.39-1.9,3.12ZM14.44,73.04c.68.73,1.74,1.29,3.21,1.69.56-.73,1.04-1.69,1.44-2.87.39-1.18.65-2.36.76-3.55l2.79-32.08c.11-1.41.03-2.8-.25-4.18-.28-1.38-.65-2.29-1.1-2.74-.45-.51-.92-.89-1.39-1.14-.48-.25-1.14-.49-1.98-.72-.51.73-.96,1.69-1.35,2.87-.39,1.18-.65,2.36-.76,3.55l-2.87,32.08c-.11,1.41-.04,2.8.21,4.18.25,1.38.69,2.35,1.31,2.91Z"/><path class="cls-2" d="M57.92,73.38c-.79.73-1.97,1.38-3.55,1.94-.51.23-1.08.44-1.73.63-.65.2-1.39.41-2.24.63-1.63.45-2.76.7-3.38.76-1.86.34-3.41.51-4.64.51-1.63,0-3.04-.21-4.22-.63-1.18-.42-2.08-.94-2.7-1.56-.56-.62-1-1.66-1.31-3.12-.31-1.46-.41-2.87-.3-4.22l3.63-41.37c0-.17.32-.39.97-.68.65-.28,1.44-.56,2.36-.84.93-.28,1.93-.53,3-.76,1.07-.22,2.03-.34,2.87-.34.51,0,.76.08.76.25l-3.63,41.37c-.11,1.41-.04,2.8.21,4.18.25,1.38.69,2.35,1.31,2.91.68.79,1.77,1.35,3.29,1.69.45-.68.89-1.62,1.31-2.83.42-1.21.69-2.41.8-3.59l3.63-41.37c0-.17.32-.39.97-.68.65-.28,1.44-.56,2.36-.84.93-.28,1.93-.53,3-.76,1.07-.22,2.03-.34,2.87-.34.51,0,.76.08.76.25l-3.63,41.37c-.11,1.52-.41,2.96-.89,4.31-.48,1.35-1.11,2.39-1.9,3.12Z"/><path class="cls-1" d="M89.74,64.72c.26-1.93.56-3.89.89-5.87-1.83.79-3.64,1.67-5.44,2.65-1.8.98-3.56,2.13-5.3,3.47-1.1.82-2.19,1.71-3.29,2.65-1.1.94-2.09,1.9-2.99,2.86-.9.96-1.63,1.92-2.19,2.88-.56.96-.85,1.87-.85,2.72,0,.24.02.43.05.55l1.83,1.78c.12.12.18.35.18.69,0,.21-.02.47-.07.78-.05.3-.1.61-.16.91-.06.3-.14.59-.23.87s-.2.49-.32.64c-.06.06-.13.13-.21.21-.08.08-.18.11-.3.11-.15,0-.3-.02-.43-.07-.14-.04-.32-.15-.55-.32-.23-.17-.52-.4-.87-.71-.35-.3-.8-.73-1.35-1.28-1.49-1.49-2.24-3.2-2.24-5.12,0-1.58.36-3.18,1.07-4.8.72-1.61,1.62-3.17,2.72-4.66,1.1-1.49,2.31-2.89,3.63-4.2,1.33-1.31,2.61-2.44,3.86-3.38,2.34-1.83,4.8-3.43,7.36-4.8s5.04-2.45,7.45-3.24c.03-.12.06-.27.09-.43.03-.17.08-.47.14-.91.06-.44.17-1.07.32-1.87.15-.81.35-1.9.59-3.27-.09.03-.18.05-.27.05s-.17.02-.23.05c-1.71.37-3.47.55-5.3.55-2.53,0-4.98-.33-7.36-1.01-2.38-.67-4.37-1.69-5.98-3.06-1.92-1.37-3.32-3.21-4.2-5.53-.88-2.31-1.33-4.93-1.33-7.86,0-.67.08-1.51.25-2.54.17-1.02.37-2.02.62-3.02.24-.99.5-1.86.78-2.6.27-.75.53-1.17.78-1.26l.41-.05c.18,0,.46.21.85.64.38.43,1.03,1.13,1.94,2.1.24.24.49.58.75,1,.26.43.43.73.53.91.03.09.05.23.07.41.02.18.02.35.02.5-.18.52-.41.93-.69,1.23-.64,1.19-1.08,2.25-1.33,3.18-.24.93-.37,1.91-.37,2.95s.08,2.03.23,2.99c.15.96.44,1.84.87,2.63,1.01.79,2.19,1.27,3.56,1.44,1.37.17,2.86.25,4.48.25,2.07,0,4.06-.14,5.96-.43,1.9-.29,3.86-.71,5.87-1.26.27-1.31.52-2.54.73-3.68.21-1.14.42-2.28.62-3.4.2-1.13.4-2.28.62-3.45.21-1.17.47-2.43.78-3.77.15-.7.28-1.34.39-1.92.11-.58.24-1.04.39-1.37.12-.3.37-.55.73-.73.24.06.47.13.69.21.21.08.45.21.71.41.26.2.56.49.89.87.33.38.75.91,1.23,1.58.12.15.22.32.3.5.08.18.11.4.11.64,0,.55-.09,1.32-.27,2.31-.18.99-.38,1.94-.59,2.86-.21.91-.39,1.66-.53,2.24-.14.58-.27,1.11-.39,1.6-.12.49-.25,1-.39,1.55s-.3,1.23-.48,2.06c1.28-.4,2.57-.8,3.86-1.21,1.29-.41,2.61-.89,3.95-1.44,1.34-.55,2.7-1.18,4.07-1.9,1.37-.72,2.76-1.58,4.16-2.58,1-.7,2.03-1.5,3.06-2.4,1.04-.9,2.08-1.83,3.13-2.79s2.09-1.94,3.11-2.95c1.02-1.01,1.99-1.96,2.9-2.88.21,0,.51.11.89.34.38.23.75.53,1.12.91.37.38.69.82.96,1.3.27.49.41,1,.41,1.55,0,.52-.06,1.02-.18,1.51-.12.49-.24.84-.37,1.05-2.01,2.62-4.27,4.93-6.78,6.92-2.51,2-5.16,3.76-7.95,5.3-2.79,1.54-5.68,2.88-8.68,4.02-3,1.14-6.01,2.19-9.02,3.13-.06.18-.14.57-.25,1.17-.11.59-.22,1.24-.34,1.94-.12.7-.24,1.37-.37,2.01-.12.64-.2,1.1-.23,1.37,2.07-.46,4.15-.81,6.24-1.07,2.09-.26,4.21-.39,6.37-.39,1.19,0,2.5.11,3.93.32,1.43.21,2.88.58,4.34,1.1,1.46.52,2.89,1.22,4.27,2.1,1.39.88,2.61,1.98,3.68,3.29,1,1.25,1.67,2.42,1.99,3.52.32,1.1.5,2.19.53,3.29-.09,1.98-.4,3.92-.94,5.83-.53,1.9-1.26,3.72-2.17,5.46-.91,1.74-2,3.35-3.24,4.84-1.25,1.49-2.65,2.8-4.2,3.93-.24.12-.43.19-.55.21-.12.01-.24.02-.37.02-.52,0-1.13-.14-1.83-.43-.7-.29-1.38-.66-2.03-1.1-.66-.44-1.21-.91-1.67-1.42-.46-.5-.69-.97-.69-1.39s.23-.82.69-1.19c.46-.37,1.07-.78,1.83-1.23.73-.46,1.57-1.03,2.51-1.71.94-.69,1.77-1.39,2.47-2.12,1.74-1.86,3.12-3.62,4.16-5.28s1.55-3.39,1.55-5.19c0-1.25-.34-2.35-1-3.29-1.62-.79-3.33-1.4-5.16-1.83-1.83-.43-3.66-.64-5.48-.64-2.77,0-5.54.24-8.29.71-2.76.47-5.48,1.1-8.16,1.9-.61,3.14-1.09,6.3-1.44,9.5-.35,3.2-.69,6.46-1.03,9.78-.06.58-.11,1.15-.14,1.71-.03.56-.09,1.15-.18,1.76-.12.58-.37.87-.73.87-.3,0-.67-.18-1.1-.55l-1.74-1.33c-.3-.24-.56-.53-.75-.84-.2-.32-.3-.65-.3-.98,0-.37.02-.8.07-1.3.05-.5.09-1.04.14-1.6.05-.56.11-1.13.18-1.71.08-.58.14-1.14.21-1.69.24-1.95.49-3.89.75-5.83Z"/><path class="cls-2" d="M157.15,77.26c-1.58.39-2.98.59-4.22.59-.51,0-.76-.08-.76-.25l2.2-24.49c.11-1.41.03-2.8-.25-4.18-.28-1.38-.67-2.32-1.18-2.83-.45-.51-1.11-.93-1.98-1.27-.87-.34-1.84-.56-2.91-.68l-2.7,31.07c0,.17-.32.39-.97.67-.65.28-1.45.56-2.41.84-.96.28-1.97.54-3.04.76-1.07.23-2.03.34-2.87.34-.51,0-.76-.08-.76-.25l3.63-41.37c.11-1.35.42-2.76.93-4.22.51-1.46,1.15-2.53,1.94-3.21.39-.34.87-.68,1.44-1.01.56-.34,1.27-.65,2.11-.93.39-.17.93-.35,1.6-.55.68-.2,1.46-.44,2.36-.72.96-.22,1.7-.39,2.24-.51.53-.11.94-.2,1.22-.25,1.74-.34,3.24-.51,4.47-.51,3.38,0,5.73.75,7.05,2.24,1.32,1.49,1.84,3.65,1.56,6.46-.11,1.3-.41,2.55-.89,3.76-.48,1.21-1.08,2.15-1.82,2.83-.39.34-.96.69-1.69,1.06-.73.37-1.58.72-2.53,1.06.96.23,1.74.48,2.36.76.62.28,1.11.61,1.48.97.37.37.65.8.84,1.31.2.51.35,1.1.46,1.77.34,1.35.42,2.76.25,4.22l-2.11,24.49c-.06.23-.61.54-1.65.93-1.04.39-2.18.76-3.42,1.1ZM148.28,41.21h5.32c.51-.56.98-1.41,1.44-2.53.45-1.13.73-2.22.84-3.29.11-1.18.01-2.38-.3-3.59-.31-1.21-.69-2.04-1.14-2.49-.45-.51-.92-.89-1.39-1.14-.48-.25-1.14-.49-1.98-.72-.51.73-.96,1.69-1.35,2.87-.39,1.18-.65,2.36-.76,3.55l-.68,7.35Z"/><path class="cls-2" d="M191.09,73.38c-.79.73-1.97,1.38-3.55,1.94-.84.34-2.2.76-4.05,1.27-1.86.45-2.98.7-3.38.76-1.86.34-3.38.51-4.56.51-1.63,0-3.04-.21-4.22-.63-1.18-.42-2.08-.94-2.7-1.56-.56-.62-1-1.66-1.31-3.12-.31-1.46-.41-2.87-.3-4.22l2.79-32.08c.11-1.35.42-2.76.93-4.22.51-1.46,1.15-2.53,1.94-3.21.39-.34.87-.68,1.44-1.01.56-.34,1.27-.65,2.11-.93.39-.17.93-.35,1.6-.55.68-.2,1.46-.44,2.36-.72.96-.22,1.7-.39,2.24-.51.53-.11.94-.2,1.22-.25,1.74-.34,3.24-.51,4.47-.51,1.63,0,3.05.21,4.26.63,1.21.42,2.1.97,2.66,1.65.62.62,1.08,1.62,1.39,3,.31,1.38.41,2.8.29,4.26l-2.87,32.08c-.11,1.52-.41,2.96-.89,4.31-.48,1.35-1.11,2.39-1.9,3.12ZM178.51,73.04c.67.73,1.74,1.29,3.21,1.69.56-.73,1.04-1.69,1.44-2.87.39-1.18.65-2.36.76-3.55l2.79-32.08c.11-1.41.03-2.8-.25-4.18-.28-1.38-.65-2.29-1.1-2.74-.45-.51-.92-.89-1.39-1.14-.48-.25-1.14-.49-1.98-.72-.51.73-.96,1.69-1.35,2.87-.39,1.18-.65,2.36-.76,3.55l-2.87,32.08c-.11,1.41-.04,2.8.21,4.18.25,1.38.69,2.35,1.31,2.91Z"/><path class="cls-2" d="M221.99,73.38c-.79.73-1.97,1.38-3.55,1.94-.51.23-1.08.44-1.73.63-.65.2-1.39.41-2.24.63-1.63.45-2.76.7-3.38.76-1.86.34-3.41.51-4.64.51-1.63,0-3.04-.21-4.22-.63-1.18-.42-2.08-.94-2.7-1.56-.56-.62-1-1.66-1.31-3.12-.31-1.46-.41-2.87-.3-4.22l3.63-41.37c0-.17.32-.39.97-.68.65-.28,1.44-.56,2.36-.84.93-.28,1.93-.53,3-.76,1.07-.22,2.03-.34,2.87-.34.51,0,.76.08.76.25l-3.63,41.37c-.11,1.41-.04,2.8.21,4.18.25,1.38.69,2.35,1.31,2.91.67.79,1.77,1.35,3.29,1.69.45-.68.89-1.62,1.31-2.83.42-1.21.69-2.41.8-3.59l3.63-41.37c0-.17.32-.39.97-.68.65-.28,1.44-.56,2.36-.84.93-.28,1.93-.53,3-.76,1.07-.22,2.03-.34,2.87-.34.51,0,.76.08.76.25l-3.63,41.37c-.11,1.52-.41,2.96-.89,4.31-.48,1.35-1.11,2.39-1.9,3.12Z"/><path class="cls-2" d="M249.86,77.26c-1.58.39-2.98.59-4.22.59-.51,0-.76-.08-.76-.25l2.2-24.49c.11-1.41.03-2.8-.25-4.18-.28-1.38-.67-2.32-1.18-2.83-.45-.51-1.11-.93-1.98-1.27-.87-.34-1.84-.56-2.91-.68l-2.7,31.07c0,.17-.32.39-.97.67-.65.28-1.45.56-2.41.84-.96.28-1.97.54-3.04.76-1.07.23-2.03.34-2.87.34-.51,0-.76-.08-.76-.25l3.63-41.37c.11-1.35.42-2.76.93-4.22.51-1.46,1.15-2.53,1.94-3.21.39-.34.87-.68,1.44-1.01.56-.34,1.27-.65,2.11-.93.39-.17.93-.35,1.6-.55.68-.2,1.46-.44,2.36-.72.96-.22,1.7-.39,2.24-.51.53-.11.94-.2,1.22-.25,1.74-.34,3.24-.51,4.47-.51,3.38,0,5.73.75,7.05,2.24,1.32,1.49,1.84,3.65,1.56,6.46-.11,1.3-.41,2.55-.89,3.76-.48,1.21-1.08,2.15-1.82,2.83-.39.34-.96.69-1.69,1.06-.73.37-1.58.72-2.53,1.06.96.23,1.74.48,2.36.76.62.28,1.11.61,1.48.97.37.37.65.8.84,1.31.2.51.35,1.1.46,1.77.34,1.35.42,2.76.25,4.22l-2.11,24.49c-.06.23-.61.54-1.65.93-1.04.39-2.18.76-3.42,1.1ZM240.99,41.21h5.32c.51-.56.98-1.41,1.44-2.53.45-1.13.73-2.22.84-3.29.11-1.18.01-2.38-.3-3.59-.31-1.21-.69-2.04-1.14-2.49-.45-.51-.92-.89-1.39-1.14-.48-.25-1.14-.49-1.98-.72-.51.73-.96,1.69-1.35,2.87-.39,1.18-.65,2.36-.76,3.55l-.68,7.35Z"/></svg>